<svg xmlns="http://www.w3.org/2000/svg" width="206.218" height="64.19" viewBox="0 0 206.218 64.19">
  <g id="navi_logo" data-name="navi logo" transform="translate(-625.748 -345.31)">
    <g id="Group_4" data-name="Group 4" transform="translate(625.748 345.31)">
      <path id="Path_59" data-name="Path 59" d="M649.291,447.275c-12.857-7.441-22.192-12.842-22.769-13.153a1.375,1.375,0,0,1-.564-.524,1.456,1.456,0,0,1-.162-.769c.03-1.45.01-2.9.01-4.281l-.011-.43,28.444,16.413Z" transform="translate(-625.775 -393.813)" fill="#38914c"/>
      <path id="Path_60" data-name="Path 60" d="M690.214,449.6c0,1.6-.008,3.177,0,4.754,0,.616-.471.787-.88,1.026L669.97,466.589a1.747,1.747,0,0,1-.974.309,1.322,1.322,0,0,1-.647-.231c-.565-.362-2.132-1.3-4.26-2.571Z" transform="translate(-648.206 -406.397)" fill="#48b961"/>
      <path id="Path_61" data-name="Path 61" d="M646.563,461.277l-4.829,2.679c-4.557-2.61-9.14-5.174-13.655-7.853a4.015,4.015,0,0,1-1.716-1.582,5.259,5.259,0,0,1-.4-2.257,25.937,25.937,0,0,1,.005-2.9Z" transform="translate(-625.851 -406.259)" fill="#38914c"/>
      <path id="Path_62" data-name="Path 62" d="M701.458,469.973c0,1.854-.029,3.346.013,4.836a1.277,1.277,0,0,1-.833,1.228c-3.491,2-6.957,4.039-10.471,6-1.848,1.029-4.624.315-6.482-1.105-.174-.133-.313-.254-.407-.34Z" transform="translate(-659.446 -418.33)" fill="#48b961"/>
      <path id="Path_63" data-name="Path 63" d="M655.8,368.233c12.864-7.429,22.2-12.823,22.76-13.168a1.38,1.38,0,0,1,.736-.227,1.45,1.45,0,0,1,.746.243c1.24.749,2.506,1.454,3.706,2.145l.379.205-28.418,16.459Q655.752,371.061,655.8,368.233Z" transform="translate(-643.295 -350.891)" fill="#fd8605"/>
      <path id="Path_64" data-name="Path 64" d="M648.574,395.974c-1.387-.8-2.749-1.592-4.122-2.369-.536-.3-.449-.8-.45-1.274q-.024-11.189-.048-22.378a1.746,1.746,0,0,1,.218-1,1.322,1.322,0,0,1,.523-.445c.6-.309,2.187-1.2,4.354-2.409Q648.812,381.037,648.574,395.974Z" transform="translate(-636.408 -357.488)" fill="#fdab05"/>
      <path id="Path_65" data-name="Path 65" d="M656.05,359.445q.044-2.761.088-5.522c4.536-2.645,9.045-5.339,13.62-7.914a4.009,4.009,0,0,1,2.227-.7,5.247,5.247,0,0,1,2.154.779,25.909,25.909,0,0,1,2.51,1.45Z" transform="translate(-643.497 -345.31)" fill="#fd8605"/>
      <path id="Path_66" data-name="Path 66" d="M630.6,398.286c-1.607-.925-2.885-1.7-4.2-2.4a1.279,1.279,0,0,1-.649-1.334c.011-4.022-.028-8.045.029-12.067.03-2.115,2.034-4.164,4.192-5.065.2-.083.377-.144.5-.183Q630.534,387.76,630.6,398.286Z" transform="translate(-625.748 -364.009)" fill="#fdab05"/>
      <path id="Path_67" data-name="Path 67" d="M737.748,403.625c.024,14.855.041,25.64.063,26.295a1.38,1.38,0,0,1-.17.751,1.454,1.454,0,0,1-.583.526c-1.268.7-2.51,1.447-3.707,2.142l-.367.226q-.048-16.42-.1-32.84Z" transform="translate(-688.505 -377.769)" fill="#1d86cb"/>
      <path id="Path_68" data-name="Path 68" d="M700.783,378c1.383-.8,2.751-1.589,4.109-2.391.53-.314.919.011,1.329.245l19.421,11.117a1.75,1.75,0,0,1,.756.687,1.323,1.323,0,0,1,.124.676c-.029.671-.049,2.495-.083,4.975Z" transform="translate(-669.699 -362.983)" fill="#2ba0ef"/>
      <path id="Path_69" data-name="Path 69" d="M751.267,411.692l4.742,2.83c.031,5.251.117,10.5.068,15.752a4.006,4.006,0,0,1-.505,2.278,5.252,5.252,0,0,1-1.75,1.481,25.977,25.977,0,0,1-2.51,1.45Z" transform="translate(-699.269 -384.193)" fill="#1d86cb"/>
      <path id="Path_70" data-name="Path 70" d="M718.4,367.6c1.6-.931,2.908-1.655,4.174-2.44a1.277,1.277,0,0,1,1.48.1c3.48,2.015,6.988,3.987,10.445,6.042,1.818,1.081,2.595,3.84,2.3,6.16-.028.218-.062.4-.09.523Z" transform="translate(-680.018 -356.822)" fill="#2ba0ef"/>
    </g>
    <path id="Path_71" data-name="Path 71" d="M1091.92,391.964l-.02,10.516-3.424-.02q.01-8.3.02-16.6l3.262-.061,7.6,10.091-.1-10.071h3.728L1103,402.4l-3.3.02Z" transform="translate(-271.037 -23.719)" fill="#23293d"/>
    <path id="Path_72" data-name="Path 72" d="M969.516,385.932l3.749-.083v6.667h6.587v-6.6l3.811-.061q-.041,8.267-.083,16.534l-3.687.02q-.03-3.293-.061-6.587H973.2q.01,3.323.02,6.646l-3.708-.041Z" transform="translate(-201.358 -23.745)" fill="#23293d"/>
    <path id="Path_73" data-name="Path 73" d="M930.87,401.73c-4.547-.013-7.562-2.2-8.727-5.845a8.6,8.6,0,0,1,3.231-9.679,9.263,9.263,0,0,1,10.492.162,7.167,7.167,0,0,1,1.043.953l-2.228,2.621a5.764,5.764,0,0,0-4.134-1.868,5.482,5.482,0,0,0-2.859.881,5.238,5.238,0,0,0-1.9,5.7,5.352,5.352,0,0,0,3.344,3.594,5.23,5.23,0,0,0,5.462-1.625l2.29,2.269a7.354,7.354,0,0,1-.768.8A8.365,8.365,0,0,1,930.87,401.73Z" transform="translate(-173.365 -23.047)" fill="#23293d"/>
    <path id="Path_74" data-name="Path 74" d="M841.462,385.9H853.9v3.283l-8.713.041.02,3.343,7.862-.041q-.02,1.651-.041,3.3l-7.821.083-.02,6.587-3.708-.041Z" transform="translate(-126.352 -23.775)" fill="#23293d"/>
    <path id="Path_75" data-name="Path 75" d="M882.94,385.9h12.442v3.283l-8.713.041.02,3.343,7.862-.041q-.02,1.651-.041,3.3l-7.822.083-.02,6.587-3.708-.041Z" transform="translate(-150.647 -23.775)" fill="#23293d"/>
    <path id="Path_76" data-name="Path 76" d="M1069.238,402.476l-3.687.02q-.011-8.278-.02-16.555l3.687-.041Q1069.23,394.189,1069.238,402.476Z" transform="translate(-257.598 -23.775)" fill="#252b3f"/>
    <path id="Path_77" data-name="Path 77" d="M1010.554,457.936a5.145,5.145,0,0,1-2.162-.739,5.469,5.469,0,0,1-.672-.469l.824-1.54a4.29,4.29,0,0,0,.783.486,4.347,4.347,0,0,0,1.851.411c.764.025.994-.133,1.094-.222a1.006,1.006,0,0,0,.284-.446.914.914,0,0,0-.013-.5,1.217,1.217,0,0,0-.8-.621c-1.059-.394-1.367-.287-2.065-.546a2.956,2.956,0,0,1-1.663-1.267,2.439,2.439,0,0,1-.266-1.308,2.715,2.715,0,0,1,2.219-2.616,4.616,4.616,0,0,1,3.4.406,4.367,4.367,0,0,1,1.147.953l-1.148,1.326a2.718,2.718,0,0,0-.946-.756,2.576,2.576,0,0,0-2-.091.994.994,0,0,0-.59.51.9.9,0,0,0,.068.689c.315.6,1.173.373,2.4.8a3.592,3.592,0,0,1,2.232,1.728,2.573,2.573,0,0,1,.09,1.588C1014.22,457.522,1012.762,457.91,1010.554,457.936Z" transform="translate(-223.736 -60.386)" fill="#292f42"/>
    <path id="Path_78" data-name="Path 78" d="M886.483,459.018q-.068-4.552-.135-9.1h2.107q.013,3.539.027,7.078l4.539-.027q-.027,1.04-.054,2.08Z" transform="translate(-152.644 -61.27)" fill="#2d3346"/>
    <path id="Path_79" data-name="Path 79" d="M796.387,384.718a8.706,8.706,0,0,0-8.874,8.684,8.829,8.829,0,1,0,8.874-8.684Zm.155,13.659a4.85,4.85,0,0,1-5.076-5.032,4.773,4.773,0,0,1,4.693-5.169,4.9,4.9,0,0,1,5.106,5.024A4.833,4.833,0,0,1,796.542,398.377Z" transform="translate(-94.751 -23.083)" fill="#23293d"/>
    <path id="Path_80" data-name="Path 80" d="M1023.262,384.918l-3.307.008-7.442,16.985,4.123-.01,1.577-3.742,6.711.024,1.611,3.677,4.174.041Zm-3.738,9.951,2.053-5.613,2.131,5.613Z" transform="translate(-226.543 -23.2)" fill="#23293d"/>
    <path id="Path_81" data-name="Path 81" d="M975.14,454.678a2.553,2.553,0,0,0-1.16-1.215,2.418,2.418,0,0,0,.756-1,2.7,2.7,0,0,0-.319-2.371,2.931,2.931,0,0,0-2.193-1.222h-4.811q.026,4.782.054,9.564l2.621-.027,2.945.027a3.159,3.159,0,0,0,2.134-1.81A2.59,2.59,0,0,0,975.14,454.678Zm-5.593-4.133,2.351.027a1.145,1.145,0,0,1,0,2.08H969.52Q969.534,451.6,969.547,450.545Zm2.84,6.18-2.813.007-.026-2.428,2.515-.02a1.36,1.36,0,0,1,1.033.446,1.305,1.305,0,0,1-.083,1.7A1.155,1.155,0,0,1,972.387,456.725Z" transform="translate(-200.127 -60.659)" fill="#282e41"/>
    <path id="Path_82" data-name="Path 82" d="M928.129,449.33l-1.823,0-4.1,9.362,2.273-.006.87-2.062,3.7.013.888,2.027,2.3.022Q930.181,454.01,928.129,449.33Zm-2.06,5.485,1.132-3.094,1.174,3.094Z" transform="translate(-173.646 -60.929)" fill="#23293d"/>
  </g>
</svg>
